<svg width="40" height="35" viewBox="0 0 40 35" fill="none" xmlns="http://www.w3.org/2000/svg">
<path fill-rule="evenodd" clip-rule="evenodd" d="M20.2856 28.9869L28.3954 33.1858C28.7154 33.3513 29.07 33.4388 29.4303 33.4412C29.7906 33.4436 30.1463 33.3608 30.4685 33.1995L37.3074 29.7801C37.687 29.5904 38.0063 29.2988 38.2295 28.9379C38.4528 28.5769 38.5711 28.161 38.5714 27.7367V21.4189C38.5711 20.9946 38.4528 20.5786 38.2295 20.2177C38.0063 19.8568 37.687 19.5652 37.3074 19.3755L29.4285 15.4349L21.5199 19.5309C21.1479 19.7237 20.8361 20.0149 20.6184 20.3729C20.4007 20.7308 20.2856 21.1417 20.2856 21.5607V28.9869Z" stroke="#EA7422" stroke-width="2.28571" stroke-linecap="round" stroke-linejoin="round"/>
<path fill-rule="evenodd" clip-rule="evenodd" d="M3.23429 29.6246L10.1097 33.1858C10.4297 33.3513 10.7844 33.4388 11.1446 33.4412C11.5049 33.4436 11.8607 33.3607 12.1829 33.1995L20.2857 29.1492V21.4189C20.2855 20.9945 20.1671 20.5786 19.9439 20.2177C19.7206 19.8568 19.4013 19.5652 19.0217 19.3755L11.1429 15.4349L3.23429 19.5309C2.8623 19.7236 2.55043 20.0149 2.33275 20.3728C2.11508 20.7308 1.99997 21.1417 2 21.5606V27.5949C1.99997 28.0138 2.11508 28.4247 2.33275 28.7827C2.55043 29.1407 2.8623 29.4319 3.23429 29.6246ZM11.1429 15.2726L19.2526 19.4715C19.5726 19.637 19.9272 19.7245 20.2875 19.7269C20.6478 19.7293 21.0035 19.6465 21.3257 19.4852L29.4286 15.4349V7.70461C29.4283 7.28024 29.31 6.86432 29.0867 6.50341C28.8635 6.14251 28.5442 5.85088 28.1646 5.66118L21.3257 2.24176C21.0035 2.08049 20.6478 1.99767 20.2875 2.00005C19.9272 2.00243 19.5726 2.08995 19.2526 2.25547L12.3771 5.81661C12.0052 6.00933 11.6933 6.30057 11.4756 6.65853C11.2579 7.01649 11.1428 7.42738 11.1429 7.84633V15.2726Z" stroke="#EA7422" stroke-width="2.28571" stroke-linecap="round" stroke-linejoin="round"/>
<path d="M11.9339 6.68749L19.2642 10.3515C19.5814 10.51 19.9312 10.5926 20.2859 10.5926C20.6405 10.5926 20.9903 10.51 21.3076 10.3515L28.5602 6.72635M16.3979 4.34692L24.8573 8.57778M25.5407 18.0612L34.0002 22.2921M7.25502 18.0612L15.7144 22.2921M21.0767 20.4018L28.407 24.0658C28.7243 24.2243 29.0741 24.3068 29.4287 24.3068C29.7834 24.3068 30.1332 24.2243 30.4504 24.0658L37.7007 20.4406M2.79102 20.4018L10.1213 24.0658C10.4386 24.2243 10.7884 24.3068 11.143 24.3068C11.4977 24.3068 11.8475 24.2243 12.1647 24.0658L19.415 20.4406M20.2859 10.8635V20.0064M29.4287 24.5778V32.5778M11.143 24.5778V32.5778" stroke="#EA7422" stroke-width="2.28571" stroke-linecap="round" stroke-linejoin="round"/>
</svg>
