<svg width="34" height="26" viewBox="0 0 34 26" fill="none" xmlns="http://www.w3.org/2000/svg">
<path d="M25.3125 0.9375H8.6875C6.48361 0.939858 4.37066 1.81639 2.81228 3.37478C1.25389 4.93316 0.377358 7.04611 0.375 9.25V23.5C0.375 24.1299 0.625222 24.734 1.07062 25.1794C1.51602 25.6248 2.12011 25.875 2.75 25.875H31.25C31.8799 25.875 32.484 25.6248 32.9294 25.1794C33.3748 24.734 33.625 24.1299 33.625 23.5V9.25C33.6226 7.04611 32.7461 4.93316 31.1877 3.37478C29.6293 1.81639 27.5164 0.939858 25.3125 0.9375ZM31.25 9.25V10.4375H26.5V3.43125C27.8402 3.70681 29.0445 4.43602 29.9097 5.49596C30.775 6.5559 31.2483 7.88174 31.25 9.25ZM18.1875 15.1875H15.8125V10.4375H18.1875V15.1875ZM14.625 17.5625H19.375C19.6899 17.5625 19.992 17.4374 20.2147 17.2147C20.4374 16.992 20.5625 16.6899 20.5625 16.375V12.8125H24.125V23.5H9.875V12.8125H13.4375V16.375C13.4375 16.6899 13.5626 16.992 13.7853 17.2147C14.008 17.4374 14.3101 17.5625 14.625 17.5625ZM20.5625 10.4375V9.25C20.5625 8.93506 20.4374 8.63301 20.2147 8.41031C19.992 8.18761 19.6899 8.0625 19.375 8.0625H14.625C14.3101 8.0625 14.008 8.18761 13.7853 8.41031C13.5626 8.63301 13.4375 8.93506 13.4375 9.25V10.4375H9.875V3.3125H24.125V10.4375H20.5625ZM7.5 3.43125V10.4375H2.75V9.25C2.75167 7.88174 3.22503 6.5559 4.09029 5.49596C4.95554 4.43602 6.15978 3.70681 7.5 3.43125ZM2.75 12.8125H7.5V23.5H2.75V12.8125ZM31.25 23.5H26.5V12.8125H31.25V23.5Z" fill="#EA7422"/>
</svg>
