<svg width="36" height="28" viewBox="0 0 36 28" fill="none" xmlns="http://www.w3.org/2000/svg">
<path d="M6.92308 6.66667C6.92308 6.14138 7.03052 5.62124 7.23927 5.13593C7.44802 4.65063 7.75399 4.20967 8.13971 3.83824C8.52543 3.4668 8.98335 3.17217 9.48732 2.97115C9.99128 2.77013 10.5314 2.66667 11.0769 2.66667C11.6224 2.66667 12.1626 2.77013 12.6665 2.97115C13.1705 3.17217 13.6284 3.4668 14.0141 3.83824C14.3999 4.20967 14.7058 4.65063 14.9146 5.13593C15.1233 5.62124 15.2308 6.14138 15.2308 6.66667C15.2308 7.72753 14.7931 8.74495 14.0141 9.49509C13.2351 10.2452 12.1786 10.6667 11.0769 10.6667C9.97526 10.6667 8.91871 10.2452 8.13971 9.49509C7.36071 8.74495 6.92308 7.72753 6.92308 6.66667ZM11.0769 0C9.24081 0 7.4799 0.702379 6.18157 1.95262C4.88324 3.20286 4.15385 4.89856 4.15385 6.66667C4.15385 8.43478 4.88324 10.1305 6.18157 11.3807C7.4799 12.631 9.24081 13.3333 11.0769 13.3333C12.913 13.3333 14.6739 12.631 15.9723 11.3807C17.2706 10.1305 18 8.43478 18 6.66667C18 4.89856 17.2706 3.20286 15.9723 1.95262C14.6739 0.702379 12.913 0 11.0769 0ZM24.9231 8C24.9231 7.29276 25.2148 6.61448 25.7342 6.11438C26.2535 5.61429 26.9579 5.33333 27.6923 5.33333C28.4268 5.33333 29.1311 5.61429 29.6504 6.11438C30.1698 6.61448 30.4615 7.29276 30.4615 8C30.4615 8.70724 30.1698 9.38552 29.6504 9.88562C29.1311 10.3857 28.4268 10.6667 27.6923 10.6667C26.9579 10.6667 26.2535 10.3857 25.7342 9.88562C25.2148 9.38552 24.9231 8.70724 24.9231 8ZM27.6923 2.66667C26.2234 2.66667 24.8147 3.22857 23.776 4.22876C22.7374 5.22896 22.1538 6.58551 22.1538 8C22.1538 9.41449 22.7374 10.771 23.776 11.7712C24.8147 12.7714 26.2234 13.3333 27.6923 13.3333C29.1612 13.3333 30.5699 12.7714 31.6086 11.7712C32.6473 10.771 33.2308 9.41449 33.2308 8C33.2308 6.58551 32.6473 5.22896 31.6086 4.22876C30.5699 3.22857 29.1612 2.66667 27.6923 2.66667ZM0 20C0 18.9391 0.437636 17.9217 1.21663 17.1716C1.99563 16.4214 3.05218 16 4.15385 16H18C19.1017 16 20.1582 16.4214 20.9372 17.1716C21.7162 17.9217 22.1538 18.9391 22.1538 20V20.2987C22.1533 20.4209 22.1441 20.543 22.1262 20.664C21.9687 21.9569 21.4691 23.1891 20.6751 24.2427C19.1603 26.256 16.2803 28 11.0769 28C5.87354 28 2.99631 26.256 1.476 24.2427C0.683011 23.1889 0.184317 21.9566 0.0276923 20.664C0.0141201 20.5426 0.00488393 20.4207 0 20.2987V20ZM2.76923 20.24V20.2587L2.78031 20.3893C2.8872 21.2149 3.20918 22.0011 3.71631 22.6747C4.61908 23.8693 6.58523 25.3333 11.0769 25.3333C15.5686 25.3333 17.5348 23.8693 18.4375 22.6747C18.9447 22.0011 19.2666 21.2149 19.3735 20.3893L19.3846 20.256V20C19.3846 19.6464 19.2387 19.3072 18.9791 19.0572C18.7194 18.8071 18.3672 18.6667 18 18.6667H4.15385C3.78662 18.6667 3.43444 18.8071 3.17478 19.0572C2.91511 19.3072 2.76923 19.6464 2.76923 20V20.24ZM27.6923 25.3333C26.064 25.3333 24.7292 25.0933 23.6492 24.6987C24.0891 23.9137 24.4249 23.0788 24.6489 22.2133C25.3911 22.4827 26.3769 22.6667 27.6923 22.6667C30.7911 22.6667 32.0622 21.648 32.6215 20.8907C32.951 20.4503 33.1588 19.9364 33.2252 19.3973L33.2308 19.3227C33.2279 19.1477 33.1536 18.9809 33.0241 18.8581C32.8946 18.7354 32.7202 18.6666 32.5385 18.6667H24.7846C24.5793 17.6999 24.1537 16.7891 23.5385 16H32.5385C34.4492 16 36 17.4933 36 19.3333V19.3787C35.9981 19.4759 35.9907 19.5729 35.9778 19.6693C35.8635 20.6695 35.484 21.6245 34.8757 22.4427C33.7071 24.0187 31.5166 25.3333 27.6923 25.3333Z" fill="#EA7422"/>
</svg>
