<svg width="15" height="16" viewBox="0 0 15 16" fill="none" xmlns="http://www.w3.org/2000/svg">
<path d="M7.49984 0.416626C11.412 0.416626 14.5832 3.58783 14.5832 7.49996C14.5832 11.4121 11.412 14.5833 7.49984 14.5833C3.58771 14.5833 0.416504 11.4121 0.416504 7.49996C0.416504 3.58783 3.58771 0.416626 7.49984 0.416626ZM7.49984 1.83329C5.99694 1.83329 4.55561 2.43032 3.4929 3.49302C2.43019 4.55573 1.83317 5.99707 1.83317 7.49996C1.83317 9.00285 2.43019 10.4442 3.4929 11.5069C4.55561 12.5696 5.99694 13.1666 7.49984 13.1666C9.00273 13.1666 10.4441 12.5696 11.5068 11.5069C12.5695 10.4442 13.1665 9.00285 13.1665 7.49996C13.1665 5.99707 12.5695 4.55573 11.5068 3.49302C10.4441 2.43032 9.00273 1.83329 7.49984 1.83329ZM7.49984 10.3333C7.6877 10.3333 7.86787 10.4079 8.0007 10.5408C8.13354 10.6736 8.20817 10.8538 8.20817 11.0416C8.20817 11.2295 8.13354 11.4097 8.0007 11.5425C7.86787 11.6753 7.6877 11.75 7.49984 11.75C7.31198 11.75 7.13181 11.6753 6.99897 11.5425C6.86613 11.4097 6.7915 11.2295 6.7915 11.0416C6.7915 10.8538 6.86613 10.6736 6.99897 10.5408C7.13181 10.4079 7.31198 10.3333 7.49984 10.3333ZM7.49984 3.60413C8.09645 3.60414 8.67444 3.81192 9.13452 4.19176C9.59459 4.5716 9.90804 5.0998 10.021 5.68562C10.134 6.27144 10.0394 6.87832 9.7536 7.402C9.46777 7.92569 9.00849 8.3335 8.45467 8.55538C8.37264 8.58554 8.2987 8.63427 8.23863 8.69775C8.20746 8.73317 8.2025 8.7785 8.20321 8.82525L8.20817 8.91663C8.20797 9.09717 8.13884 9.27082 8.0149 9.4021C7.89097 9.53338 7.72158 9.61238 7.54135 9.62296C7.36112 9.63354 7.18365 9.5749 7.04521 9.45902C6.90676 9.34315 6.81779 9.17878 6.79646 8.9995L6.7915 8.91663V8.73954C6.7915 7.92283 7.45025 7.43267 7.92767 7.24071C8.12198 7.16312 8.29148 7.03407 8.41797 6.86741C8.54446 6.70075 8.62317 6.50279 8.64564 6.29477C8.6681 6.08676 8.63348 5.87655 8.5455 5.68673C8.45751 5.4969 8.31947 5.33463 8.14622 5.21734C7.97296 5.10005 7.77103 5.03217 7.5621 5.02098C7.35318 5.0098 7.14515 5.05574 6.96037 5.15387C6.77558 5.252 6.62101 5.39861 6.51327 5.57795C6.40552 5.7573 6.34866 5.96261 6.3488 6.17183C6.3488 6.3597 6.27417 6.53986 6.14133 6.6727C6.00849 6.80554 5.82832 6.88017 5.64046 6.88017C5.4526 6.88017 5.27243 6.80554 5.1396 6.6727C5.00676 6.53986 4.93213 6.3597 4.93213 6.17183C4.93213 5.49084 5.20265 4.83773 5.68419 4.35619C6.16573 3.87465 6.81884 3.60413 7.49984 3.60413Z" fill="white"/>
</svg>
