<svg width="29" height="29" viewBox="0 0 29 29" fill="none" xmlns="http://www.w3.org/2000/svg">
<path d="M18.25 22H12M22 17H12M4.5 27H24.5C25.163 27 25.7989 26.7366 26.2678 26.2678C26.7366 25.7989 27 25.163 27 24.5V4.5C27 3.83696 26.7366 3.20107 26.2678 2.73223C25.7989 2.26339 25.163 2 24.5 2H9.5C8.83696 2 8.20107 2.26339 7.73223 2.73223C7.26339 3.20107 7 3.83696 7 4.5V24.5C7 25.163 6.73661 25.7989 6.26777 26.2678C5.79893 26.7366 5.16304 27 4.5 27ZM4.5 27C3.83696 27 3.20107 26.7366 2.73223 26.2678C2.26339 25.7989 2 25.163 2 24.5V13.25C2 12.587 2.26339 11.9511 2.73223 11.4822C3.20107 11.0134 3.83696 10.75 4.5 10.75H7" stroke="#EA7422" stroke-width="2.3" stroke-linecap="round" stroke-linejoin="round"/>
<path d="M20.75 7H13.25C12.5596 7 12 7.55964 12 8.25V10.75C12 11.4404 12.5596 12 13.25 12H20.75C21.4404 12 22 11.4404 22 10.75V8.25C22 7.55964 21.4404 7 20.75 7Z" stroke="#EA7422" stroke-width="2.3" stroke-linecap="round" stroke-linejoin="round"/>
</svg>
