<svg width="29" height="32" viewBox="0 0 29 32" fill="none" xmlns="http://www.w3.org/2000/svg">
<path d="M14.5 0.25C15.1666 0.250001 15.7638 0.42338 16.2979 0.770508L16.5225 0.929688L16.5244 0.930664L27.3994 9.15918L27.4014 9.16113C27.7692 9.4333 28.068 9.76992 28.2979 10.1738L28.3916 10.3516C28.6016 10.7743 28.7197 11.2175 28.7451 11.6836L28.75 11.8848V28.3428C28.75 29.2236 28.4604 29.9797 27.877 30.623L27.7568 30.751C27.0927 31.421 26.3028 31.7511 25.375 31.75H18.125C17.7313 31.75 17.4025 31.6343 17.127 31.4033L17.0127 31.2979C16.7518 31.0337 16.604 30.7173 16.5703 30.3379L16.5625 30.1709V20.7783H12.4375V30.1719C12.4374 30.5705 12.3219 30.9034 12.0928 31.1826L11.9883 31.2988C11.7267 31.5627 11.4141 31.711 11.04 31.7432L10.876 31.75H3.625C2.75371 31.75 2.00548 31.4594 1.36914 30.8721L1.24316 30.751C0.580228 30.0822 0.251181 29.2837 0.25 28.3428V11.8857C0.25 11.3453 0.370202 10.835 0.610352 10.3516C0.820694 9.92814 1.09893 9.57201 1.44629 9.28125L1.59863 9.16113L1.60059 9.15918L12.4756 0.930664L12.4775 0.929688C13.0673 0.476395 13.7384 0.25 14.5 0.25ZM25.625 11.7617L25.5254 11.6865L14.6504 3.45801L14.5 3.34375L14.3496 3.45801L3.47461 11.6865L3.375 11.7617V28.5928H9.3125V19.2002C9.3125 18.8016 9.42738 18.4686 9.65625 18.1904L9.76172 18.0742C10.0235 17.811 10.3363 17.6627 10.7109 17.6289L10.876 17.6211H18.125C18.5747 17.6211 18.9412 17.7725 19.2402 18.0742C19.5018 18.3383 19.6487 18.6542 19.6807 19.0332L19.6875 19.1992V28.5928H25.625V11.7617Z" fill="#EA7422" stroke="#313423" stroke-width="0.5"/>
</svg>
